<svg version="1.2" xmlns="http://www.w3.org/2000/svg" viewBox="0 0 1080 323" width="1080" height="323"><defs><clipPath clipPathUnits="userSpaceOnUse" id="cp1"><path d="m0 0h1080v323h-1080z"/></clipPath></defs><style></style><g clip-path="url(#cp1)"><path  d="m190.8 66.8h-75.6l-6.2 23.7h25.2l-43.7 163.5h25l43.7-163.5h25.3zm50.7 24.8h32.3l6.7-24.8h-39.7c-20.5 0-32.8 8-37.3 24.3l-14 52.7h-15.5l-6.2 23.8 15.2-0.1-12 45c-7.5 27.8 3 41.5 31 41.5h28.5l6.3-23.7h-29.8c-10.2 0-14-5.5-11.2-16.3l12.5-46.5h36.7l6.3-23.7h-36.8l10.3-38.5c2.5-9.3 8-13.8 16.7-13.8zm90.8-27.2c-20 0-33 8.7-37.5 25.8l-23.5 87.7h-15.8l-6.2 23.7h15.5l-14 52.5h25l14-52.5h25.7l-14 52.5h25l39.8-148.7c7.2-27-4.5-41-34-41zm9.7 38.7l-20 74.8h-25.7l21-78.3c1.7-7 6-10.5 12.7-10.5 10.8 0 14.5 4.8 12 14zm133.8-38.7c-12.5 0-22 6.7-28.3 20-1-13.3-9-20-23.7-20-15.8 0-26.5 8.7-31 25.7l-43.8 164h25l41.5-157c1.3-5.2 4.5-8 9.5-8 6.3 0 8.3 4.8 5.8 14l-40.3 151h25l42-157c1.3-5.2 4.5-8 9.5-8 6 0 7.8 4.8 5.3 14l-40.3 151h25l39.5-148.7c7.3-27 0-41-20.7-41zm141.7 27.2h32.3l6.7-24.7h-39.7c-20.5 0-32.8 8-37.3 24.2l-14 52.8h-15.5l-6.2 23.7h15.2l-12 45c-7.5 27.8 3 41.5 31 41.5h28.5l6.3-23.7h-29.8c-10.2 0-14-5.5-11.2-16.3l12.5-46.5h36.7l6.3-23.7h-36.8l10.3-38.5c2.5-9.3 8-13.8 16.7-13.8zm81-24.7h-25l-50 187.2h25zm55.3-2.5c-20.3 0-33.3 8.8-37.8 25.8l-33.5 125.5c-7.2 27 4.5 41 34.3 41 20.2 0 33-8.8 37.5-25.8l20.7-77.2h-38.2l-6.3 23.7h13l-12 44c-1.7 7-6.5 10.5-13.5 10.5-9.5 0-13.5-4.7-11-14l31.5-118.2c1.8-7 6.8-10.5 14-10.5 9.3 0 12.8 4.7 10.8 14l-2.8 12.2h24.8l2.2-10c6-27-5.5-41-33.7-41zm119 2.5l-20.5 77h-25.5l20.5-77h-25l-20.5 77h-15.5l-6.5 23.8h15.5l-23 86.5h25l23-86.5h25.5l-23 86.5h25l50-187.3zm116 0.1h-75.5l-6.3 23.7h25.3l-43.8 163.5h25l43.8-163.5h25.2zm-16 171.8c3-12.3 0-18.3-10.7-18.3-8.3 0-13.8 6-16.5 18-2.8 12.2 0.2 18.2 9.7 18.2 8.5 0 14.5-6 17.5-18z"/></g></svg>